<?xml version="1.0" encoding="UTF-8" standalone="no"?>
<!DOCTYPE svg PUBLIC "-//W3C//DTD SVG 20010904//EN"
              "http://www.w3.org/TR/2001/REC-SVG-20010904/DTD/svg10.dtd">

<svg xmlns="http://www.w3.org/2000/svg"
     width="0.288888in" height="0.288888in"
     viewBox="0 0 256 256">
  <path id="Seleção #3"
        fill="black" stroke="black" stroke-width="3"
        d="M 86.00,1.67
           C 114.61,4.20 138.78,21.48 150.13,48.00
             154.88,59.09 156.02,69.11 156.00,81.00
             155.95,114.19 132.82,143.98 101.00,153.09
             91.10,155.93 85.10,156.11 75.00,156.00
             18.94,155.34 -15.06,92.77 9.27,44.00
             17.40,27.69 31.86,13.62 49.00,7.06
             60.81,2.54 64.38,3.06 76.00,1.67
             81.10,0.92 81.32,1.54 86.00,1.67 Z
           M 33.55,40.04
           C 22.61,56.28 33.27,78.16 53.00,78.96
             82.06,80.13 88.77,40.53 63.00,30.81
             58.78,29.22 55.43,28.90 51.00,29.30
             43.70,30.72 37.81,33.71 33.55,40.04 Z
           M 186.00,136.00
           C 186.00,136.00 225.00,175.00 225.00,175.00
             225.00,175.00 243.00,193.00 243.00,193.00
             245.84,195.84 251.00,200.55 252.69,204.00
             254.82,208.36 255.02,218.97 255.00,224.00
             254.97,230.47 253.63,242.81 249.43,247.81
             246.27,251.58 240.69,253.09 236.00,253.76
             227.10,255.31 215.82,255.69 207.00,253.76
             197.96,251.61 202.22,247.03 189.00,247.00
             182.30,246.99 170.57,248.74 167.60,240.98
             166.89,239.12 167.00,236.03 167.00,234.00
             167.00,234.00 167.00,217.00 167.00,217.00
             161.07,217.00 144.29,218.48 140.28,214.69
             135.43,210.10 137.00,194.65 137.00,188.00
             130.78,188.00 115.77,189.14 111.15,185.44
             107.26,182.34 107.99,177.43 108.00,173.00
             108.00,170.83 107.77,167.32 109.02,165.50
             110.42,163.46 114.72,162.18 117.00,161.11
             120.57,159.43 125.65,156.22 129.00,154.00
             131.47,152.36 138.90,146.32 141.00,146.05
             143.81,145.69 146.15,148.26 148.00,150.02
             148.00,150.02 160.00,162.00 160.00,162.00
             160.00,162.00 210.00,212.00 210.00,212.00
             212.76,214.76 218.49,221.10 222.00,222.22
             226.96,223.80 232.44,218.73 231.16,214.00
             230.11,210.13 218.40,199.40 215.00,196.00
             215.00,196.00 172.00,153.00 172.00,153.00
             172.00,153.00 158.02,139.00 158.02,139.00
             156.18,137.08 153.78,134.86 153.70,132.00
             153.64,129.35 161.19,117.17 163.00,114.00
             169.22,118.45 180.06,130.06 186.00,136.00 Z" />
</svg>
